<mxfile host="app.diagrams.net" modified="2022-07-21T07:41:46.485Z" agent="5.0 (Windows NT 10.0; Win64; x64) AppleWebKit/537.36 (KHTML, like Gecko) Chrome/103.0.0.0 Safari/537.36" etag="Sz0fZUsxsC7748KL4xJz" version="20.0.1" type="github">
  <diagram id="lAwHy3NMYHceYHYYy1Kv" name="Page-1">
    <mxGraphModel dx="1422" dy="762" grid="1" gridSize="10" guides="1" tooltips="1" connect="1" arrows="1" fold="1" page="1" pageScale="1" pageWidth="850" pageHeight="1100" math="0" shadow="0">
      <root>
        <mxCell id="0" />
        <mxCell id="1" parent="0" />
        <mxCell id="KXLBbT5RH8a_weErAbva-1" value="&lt;font style=&quot;font-size: 24px;&quot;&gt;Python&amp;nbsp;&lt;/font&gt;" style="rounded=0;whiteSpace=wrap;html=1;" vertex="1" parent="1">
          <mxGeometry x="60" y="70" width="120" height="40" as="geometry" />
        </mxCell>
        <mxCell id="KXLBbT5RH8a_weErAbva-2" value="" style="endArrow=classic;html=1;rounded=0;fontSize=24;" edge="1" parent="1">
          <mxGeometry width="50" height="50" relative="1" as="geometry">
            <mxPoint x="180" y="89.5" as="sourcePoint" />
            <mxPoint x="260" y="89.5" as="targetPoint" />
            <Array as="points" />
          </mxGeometry>
        </mxCell>
        <mxCell id="KXLBbT5RH8a_weErAbva-3" value="Bahasa Pemograman&amp;nbsp;" style="rounded=0;whiteSpace=wrap;html=1;fontSize=24;" vertex="1" parent="1">
          <mxGeometry x="270" y="60" width="210" height="60" as="geometry" />
        </mxCell>
        <mxCell id="KXLBbT5RH8a_weErAbva-6" value="" style="endArrow=classic;html=1;rounded=0;fontSize=24;" edge="1" parent="1">
          <mxGeometry width="50" height="50" relative="1" as="geometry">
            <mxPoint x="480" y="89.5" as="sourcePoint" />
            <mxPoint x="530" y="90" as="targetPoint" />
          </mxGeometry>
        </mxCell>
        <mxCell id="KXLBbT5RH8a_weErAbva-7" value="Interpreted" style="rounded=0;whiteSpace=wrap;html=1;fontSize=24;" vertex="1" parent="1">
          <mxGeometry x="550" y="60" width="150" height="60" as="geometry" />
        </mxCell>
        <mxCell id="KXLBbT5RH8a_weErAbva-10" value="&lt;span style=&quot;font-size: 18px;&quot;&gt;Interpreted merupakan source code yang diterjemakan oleh python dijalankan diterminal&lt;/span&gt;" style="rounded=0;whiteSpace=wrap;html=1;fontSize=24;" vertex="1" parent="1">
          <mxGeometry x="30" y="170" width="220" height="110" as="geometry" />
        </mxCell>
        <mxCell id="KXLBbT5RH8a_weErAbva-13" style="edgeStyle=orthogonalEdgeStyle;rounded=0;orthogonalLoop=1;jettySize=auto;html=1;fontSize=18;" edge="1" parent="1" source="KXLBbT5RH8a_weErAbva-11">
          <mxGeometry relative="1" as="geometry">
            <mxPoint x="420" y="280" as="targetPoint" />
          </mxGeometry>
        </mxCell>
        <mxCell id="KXLBbT5RH8a_weErAbva-11" value="&lt;h1&gt;Interpreted&lt;/h1&gt;" style="text;html=1;strokeColor=none;fillColor=none;spacing=5;spacingTop=-20;whiteSpace=wrap;overflow=hidden;rounded=0;fontSize=18;" vertex="1" parent="1">
          <mxGeometry x="300" y="150" width="240" height="70" as="geometry" />
        </mxCell>
        <mxCell id="KXLBbT5RH8a_weErAbva-14" value="Source code&amp;nbsp;" style="rounded=0;whiteSpace=wrap;html=1;fontSize=24;" vertex="1" parent="1">
          <mxGeometry x="310" y="280" width="210" height="60" as="geometry" />
        </mxCell>
        <mxCell id="KXLBbT5RH8a_weErAbva-15" style="edgeStyle=orthogonalEdgeStyle;rounded=0;orthogonalLoop=1;jettySize=auto;html=1;fontSize=18;" edge="1" parent="1">
          <mxGeometry relative="1" as="geometry">
            <mxPoint x="419.5" y="400" as="targetPoint" />
            <mxPoint x="419.5" y="340" as="sourcePoint" />
          </mxGeometry>
        </mxCell>
        <mxCell id="KXLBbT5RH8a_weErAbva-16" value="Python 3.9.0" style="rounded=0;whiteSpace=wrap;html=1;fontSize=24;" vertex="1" parent="1">
          <mxGeometry x="315" y="400" width="210" height="60" as="geometry" />
        </mxCell>
        <mxCell id="KXLBbT5RH8a_weErAbva-17" value="interpreterd / penerjemah" style="text;html=1;strokeColor=none;fillColor=none;align=center;verticalAlign=middle;whiteSpace=wrap;rounded=0;fontSize=18;" vertex="1" parent="1">
          <mxGeometry x="440" y="370" width="215" height="30" as="geometry" />
        </mxCell>
        <mxCell id="KXLBbT5RH8a_weErAbva-18" value="&lt;span style=&quot;font-size: 18px;&quot;&gt;menerjemahkan dengan python dilakukan dengan baris perbaris&lt;/span&gt;" style="rounded=0;whiteSpace=wrap;html=1;fontSize=24;" vertex="1" parent="1">
          <mxGeometry x="20" y="420" width="220" height="110" as="geometry" />
        </mxCell>
      </root>
    </mxGraphModel>
  </diagram>
</mxfile>
